HIERARCHY
ROOT Hips
{
 OFFSET 0.000000 0.000000 0.000000
 CHANNELS 6 Xposition Yposition Zposition Yrotation Xrotation Zrotation
 JOINT Chest
 {
  OFFSET 0.000000 9.585900 0.002600
  CHANNELS 3 Yrotation Xrotation Zrotation
  JOINT Chest2
  {
   OFFSET 0.000000 9.601200 -0.005300
   CHANNELS 3 Yrotation Xrotation Zrotation
   JOINT Chest3
   {
    OFFSET 0.000000 9.561800 0.000000
    CHANNELS 3 Yrotation Xrotation Zrotation
    JOINT Chest4
    {
     OFFSET 0.000000 9.552100 0.000000
     CHANNELS 3 Yrotation Xrotation Zrotation
     JOINT Neck
     {
      OFFSET 0.000000 14.453000 0.000000
      CHANNELS 3 Yrotation Xrotation Zrotation
      JOINT Head
      {
       OFFSET 0.000000 8.936500 -0.011300
       CHANNELS 3 Yrotation Xrotation Zrotation
       End Site
       {
        OFFSET 0.000000 17.073600 -0.006000
       }
      }
     }
     JOINT RightCollar
     {
      OFFSET -2.921100 9.558500 0.000000
      CHANNELS 3 Yrotation Xrotation Zrotation
      JOINT RightShoulder
      {
       OFFSET -13.519700 0.000000 0.000000
       CHANNELS 3 Yrotation Xrotation Zrotation
       JOINT RightElbow
       {
        OFFSET 0.000000 -29.696600 0.000000
        CHANNELS 3 Yrotation Xrotation Zrotation
        JOINT RightWrist
        {
         OFFSET 0.000000 -24.004700 0.000000
         CHANNELS 3 Yrotation Xrotation Zrotation
         End Site
         {
          OFFSET 0.000000 -17.728500 0.000000
         }
        }
       }
      }
     }
     JOINT LeftCollar
     {
      OFFSET 2.921100 9.558500 0.000000
      CHANNELS 3 Yrotation Xrotation Zrotation
      JOINT LeftShoulder
      {
       OFFSET 13.519700 0.000000 0.000000
       CHANNELS 3 Yrotation Xrotation Zrotation
       JOINT LeftElbow
       {
        OFFSET 0.000000 -29.696600 0.000000
        CHANNELS 3 Yrotation Xrotation Zrotation
        JOINT LeftWrist
        {
         OFFSET 0.000000 -24.004700 0.000000
         CHANNELS 3 Yrotation Xrotation Zrotation
         End Site
         {
          OFFSET 0.000000 -17.728500 0.000000
         }
        }
       }
      }
     }
    }
   }
  }
 }
 JOINT RightHip
 {
  OFFSET -7.771700 -0.012900 -0.001300
  CHANNELS 3 Yrotation Xrotation Zrotation
  JOINT RightKnee
  {
   OFFSET 0.000000 -40.869800 0.001200
   CHANNELS 3 Yrotation Xrotation Zrotation
   JOINT RightAnkle
   {
    OFFSET 0.000000 -39.717900 0.002100
    CHANNELS 3 Yrotation Xrotation Zrotation
    JOINT RightToe
    {
     OFFSET 0.000000 -4.965400 11.033500
     CHANNELS 3 Yrotation Xrotation Zrotation
     End Site
     {
      OFFSET 0.000000 -1.423100 5.872300
     }
    }
   }
  }
 }
 JOINT LeftHip
 {
  OFFSET 7.771700 -0.012900 -0.001300
  CHANNELS 3 Yrotation Xrotation Zrotation
  JOINT LeftKnee
  {
   OFFSET 0.000000 -40.869800 0.001200
   CHANNELS 3 Yrotation Xrotation Zrotation
   JOINT LeftAnkle
   {
    OFFSET 0.000000 -39.717900 0.002100
    CHANNELS 3 Yrotation Xrotation Zrotation
    JOINT LeftToe
    {
     OFFSET 0.000000 -4.965400 11.033500
     CHANNELS 3 Yrotation Xrotation Zrotation
     End Site
     {
      OFFSET 0.000000 -1.423100 5.872300
     }
    }
   }
  }
 }
}
MOTION
Frames: 16
Frame Time: 0.008333
25.834762 50.068571 60.688618 173.058527 -33.887584 -7.214807 7.019135 20.019908 6.903251 0.819051 2.764916 0.641867 1.350024 4.494819 1.065671 5.796883 17.142854 4.772582 -2.823689 15.531924 1.504332 -5.825638 -6.820083 3.798061 -1.608261 -2.729288 -4.043133 12.389385 -3.445763 1.210599 91.953222 -72.528949 -92.348640 2.954130 -4.138273 -0.562412 -11.369510 0.720747 -0.529179 -1.728801 -4.190301 -1.075528 -120.599208 -69.493908 123.027763 12.871392 -7.898430 -1.062593 -0.008638 -46.375888 11.063366 -118.343081 83.156564 -105.892560 -1.645994 -13.906659 -4.765553 -0.086292 0.967540 -0.052319 -8.729541 -50.550485 16.932265 -151.704127 80.369492 -159.261311 0.985170 -17.795738 8.071112 -0.420689 -0.732381 -0.211710
25.844559 50.066162 60.687881 173.058058 -33.884548 -7.221526 7.024306 20.018027 6.898224 0.818718 2.762844 0.639448 1.349456 4.491653 1.061705 5.801415 17.142046 4.775685 -2.814320 15.532237 1.523314 -5.763387 -6.832591 3.872086 -1.602755 -2.726189 -4.028082 12.437493 -3.476845 1.179115 91.796898 -72.493822 -92.144815 2.928350 -4.082127 -0.664154 -11.380238 0.713615 -0.547713 -1.782951 -4.190272 -1.087387 -120.756285 -69.614908 123.060533 12.848873 -7.853859 -0.977323 -0.036106 -46.377905 11.080211 -118.435823 83.172958 -105.978645 -1.609573 -13.907021 -4.810664 -0.099158 0.969005 -0.039762 -8.747998 -50.552282 16.948951 -151.735919 80.365059 -159.290737 0.990618 -17.807613 8.066637 -0.413322 -0.723990 -0.212239
25.852563 50.064115 60.687980 173.051726 -33.880122 -7.218548 7.035769 20.014501 6.886352 0.819020 2.761388 0.637071 1.349922 4.489426 1.057906 5.803112 17.140096 4.779912 -2.792762 15.526834 1.542143 -5.711078 -6.841864 3.941323 -1.590192 -2.736995 -4.016877 12.561940 -3.538113 1.107707 91.443856 -72.482982 -91.835054 2.982802 -3.961222 -0.758592 -11.404023 0.670075 -0.605131 -1.786052 -4.146095 -1.028647 -121.009489 -69.743880 123.152829 12.824450 -7.788189 -0.899412 -0.068183 -46.376446 11.083180 -118.528092 83.194594 -106.054352 -1.598165 -13.910730 -4.856232 -0.093009 0.970059 -0.039035 -8.750681 -50.556780 16.954757 -151.780272 80.363095 -159.330825 0.979702 -17.815040 8.065485 -0.442362 -0.717729 -0.213874
25.858492 50.062781 60.688361 173.044998 -33.877880 -7.207465 7.044031 20.013150 6.869346 0.819890 2.760991 0.635551 1.353222 4.491062 1.041389 5.810502 17.135687 4.785973 -2.753354 15.519861 1.578983 -5.689646 -6.848728 3.985760 -1.581880 -2.759143 -4.002303 12.680609 -3.590425 1.046244 91.102031 -72.510022 -91.578517 3.072815 -3.878396 -0.775061 -11.421706 0.642904 -0.615989 -1.951840 -4.177695 -1.068229 -120.717209 -69.760289 122.930811 12.855051 -7.708857 -0.916513 -0.075310 -46.376835 11.077906 -118.557819 83.200820 -106.083772 -1.570633 -13.916882 -4.864024 -0.123813 0.977448 -0.050704 -8.739655 -50.559938 16.946252 -151.801066 80.362335 -159.348524 0.969490 -17.817366 8.064200 -0.449049 -0.714869 -0.212563
25.863947 50.062092 60.689709 173.040174 -33.875425 -7.199747 7.051578 20.014416 6.845585 0.817179 2.759429 0.644532 1.354141 4.488785 1.045192 5.813384 17.141628 4.744585 -2.721163 15.510050 1.630617 -5.652750 -6.861857 4.026852 -1.570628 -2.792595 -3.972691 12.770875 -3.624231 1.013900 90.837206 -72.521552 -91.376139 3.112698 -3.853196 -0.739858 -11.429668 0.610616 -0.602561 -2.087071 -4.192794 -1.069805 -120.659072 -69.802776 122.790722 12.778805 -7.635599 -0.826951 -0.086747 -46.376809 11.074854 -118.580671 83.208328 -106.107323 -1.542174 -13.921317 -4.869105 -0.164888 0.982750 -0.062611 -8.729689 -50.562256 16.936898 -151.831742 80.364898 -159.377324 0.978070 -17.825661 8.056169 -0.450574 -0.708252 -0.207258
25.868686 50.062007 60.691961 173.036570 -33.873304 -7.193274 7.055415 20.013321 6.834196 0.819025 2.759036 0.639152 1.353300 4.488182 1.050403 5.814818 17.142693 4.726030 -2.693003 15.497572 1.654933 -5.647596 -6.861839 4.051681 -1.548222 -2.836340 -3.986842 12.843650 -3.645663 1.009343 90.676010 -72.487323 -91.208463 3.081947 -3.835207 -0.718430 -11.433439 0.577239 -0.610407 -2.196577 -4.195664 -1.051825 -120.603207 -69.785403 122.651584 12.709686 -7.565367 -0.766128 -0.094044 -46.375654 11.069990 -118.575147 83.213203 -106.090306 -1.550557 -13.929610 -4.869840 -0.153069 0.989235 -0.075589 -8.721038 -50.564521 16.928646 -151.867532 80.368912 -159.407245 0.970673 -17.828599 8.046965 -0.439525 -0.703986 -0.200718
25.875240 50.061684 60.697173 173.015452 -33.862336 -7.193812 7.072760 19.998397 6.836462 0.825111 2.761603 0.636462 1.354035 4.488211 1.047336 5.815468 17.138540 4.719510 -2.674385 15.480584 1.671350 -5.635357 -6.859024 4.073620 -1.539777 -2.857605 -3.998337 12.916780 -3.681636 0.994264 90.533802 -72.503158 -91.080560 3.074804 -3.850072 -0.640981 -11.435260 0.553869 -0.614139 -2.303531 -4.204502 -1.033910 -120.484894 -69.715337 122.501713 12.650209 -7.504426 -0.762439 -0.095600 -46.386503 11.081751 -118.481428 83.207813 -105.965711 -1.561429 -13.929306 -4.898527 -0.134999 0.993385 -0.068085 -8.715972 -50.575737 16.944937 -151.886928 80.373420 -159.419014 0.979478 -17.834063 8.040254 -0.443738 -0.700357 -0.200876
25.878359 50.061957 60.701873 172.999248 -33.857273 -7.179350 7.078610 19.991514 6.820561 0.826018 2.760289 0.633511 1.355723 4.487023 1.043510 5.822219 17.139923 4.727346 -2.663592 15.464731 1.674652 -5.605343 -6.892008 4.108069 -1.538376 -2.862763 -4.004899 12.977379 -3.724836 0.956558 90.433111 -72.533827 -90.996103 3.068880 -3.883825 -0.536778 -11.436087 0.546537 -0.614779 -2.406662 -4.232439 -1.021640 -120.354473 -69.614104 122.351968 12.584285 -7.460334 -0.782634 -0.102956 -46.388367 11.081532 -118.423780 83.215945 -105.904891 -1.570294 -13.932259 -4.889096 -0.154356 1.000354 -0.088406 -8.703229 -50.577363 16.939013 -151.886581 80.383433 -159.420045 0.979845 -17.838986 8.035050 -0.433954 -0.692527 -0.199681
25.880624 50.062995 60.706348 172.991121 -33.858382 -7.166675 7.081400 19.992704 6.809766 0.824233 2.759216 0.626008 1.358179 4.486155 1.040027 5.830848 17.138572 4.715536 -2.649061 15.448901 1.698021 -5.566471 -6.978418 4.166941 -1.544413 -2.864595 -3.992048 13.016248 -3.767258 0.914530 90.385690 -72.569568 -90.949071 3.056795 -3.929069 -0.423875 -11.439410 0.517304 -0.620491 -2.500084 -4.235714 -0.976954 -120.222860 -69.492389 122.200550 12.521577 -7.438711 -0.825911 -0.114221 -46.382540 11.082200 -118.356741 83.222238 -105.838421 -1.585289 -13.935949 -4.883113 -0.131100 1.007543 -0.100467 -8.693456 -50.572716 16.928450 -151.880470 80.392735 -159.419271 0.988653 -17.842196 8.026417 -0.453448 -0.688294 -0.195861
25.881415 50.063915 60.711247 172.971184 -33.860842 -7.140839 7.086842 19.998714 6.785209 0.826071 2.759449 0.624222 1.361115 4.490860 1.025119 5.852347 17.140184 4.697852 -2.635888 15.416942 1.739579 -5.553775 -7.030026 4.208469 -1.556373 -2.878798 -3.975539 13.029528 -3.813599 0.883490 90.375283 -72.611256 -90.921289 3.042160 -3.932669 -0.374685 -11.440567 0.461666 -0.618702 -2.586756 -4.223685 -0.913518 -120.111088 -69.357301 122.059900 12.472465 -7.440327 -0.883584 -0.123171 -46.378227 11.069322 -118.397015 83.240327 -105.901553 -1.502153 -13.930800 -4.889537 -0.180380 1.011483 -0.112241 -8.667431 -50.567664 16.913239 -151.847790 80.400994 -159.390464 0.963143 -17.839358 8.027627 -0.443699 -0.686047 -0.194412
25.884195 50.064688 60.717338 172.955072 -33.860600 -7.131225 7.095969 19.998706 6.773748 0.828178 2.760231 0.622868 1.363980 4.494088 1.025466 5.862899 17.142431 4.690002 -2.631846 15.392254 1.755024 -5.553230 -7.075045 4.237124 -1.569967 -2.890265 -3.980195 13.038180 -3.858044 0.847100 90.386879 -72.653561 -90.903819 3.024050 -4.012432 -0.242230 -11.445024 0.450338 -0.602692 -2.649366 -4.258103 -0.884563 -120.037637 -69.223275 121.948201 12.442962 -7.470826 -0.939512 -0.127118 -46.378685 11.072504 -118.354341 83.249723 -105.853719 -1.481559 -13.923989 -4.909626 -0.175292 1.012799 -0.107832 -8.661132 -50.566314 16.917871 -151.739617 80.402079 -159.287490 0.977393 -17.835783 8.026138 -0.442909 -0.686162 -0.195666
25.887111 50.065929 60.722505 172.936180 -33.868963 -7.120991 7.106565 20.008580 6.764857 0.830564 2.766669 0.617504 1.370535 4.489474 1.032277 5.871850 17.148182 4.681114 -2.632168 15.364999 1.767347 -5.559927 -7.124762 4.261778 -1.580750 -2.903077 -3.984494 13.042051 -3.902714 0.808606 90.364707 -72.696049 -90.857577 3.017431 -4.103552 -0.131669 -11.447000 0.425608 -0.600642 -2.702452 -4.280896 -0.839221 -120.026354 -69.111808 121.886413 12.431821 -7.533226 -0.968968 -0.125334 -46.371867 11.079612 -118.315855 83.258850 -105.808516 -1.478226 -13.917945 -4.927850 -0.166529 1.013539 -0.103908 -8.645225 -50.557446 16.918586 -151.718272 80.405604 -159.267135 0.978418 -17.832563 8.021262 -0.442842 -0.687735 -0.192429
25.890663 50.065764 60.729379 172.922247 -33.865212 -7.118983 7.118883 20.006233 6.766988 0.830503 2.770842 0.616714 1.372788 4.483538 1.034209 5.876592 17.161992 4.670708 -2.634058 15.334810 1.775190 -5.568117 -7.180162 4.278956 -1.582547 -2.943656 -4.010647 13.043146 -3.929791 0.798495 90.260797 -72.744150 -90.745890 3.045816 -4.181110 -0.080568 -11.453679 0.400407 -0.601107 -2.734125 -4.306592 -0.785652 -120.086143 -69.034148 121.878130 12.432668 -7.623352 -0.948869 -0.125877 -46.377380 11.088830 -118.269306 83.275460 -105.746253 -1.482664 -13.911574 -4.956708 -0.163873 1.017428 -0.095002 -8.653734 -50.559136 16.936024 -151.692877 80.412776 -159.246766 0.986177 -17.831110 8.008664 -0.447556 -0.684233 -0.185898
25.893220 50.065472 60.735079 172.907851 -33.866590 -7.109924 7.128189 20.011559 6.762769 0.831786 2.773647 0.615935 1.375632 4.484891 1.032395 5.877718 17.161856 4.668983 -2.634964 15.318847 1.777742 -5.578860 -7.244949 4.284185 -1.584205 -2.971124 -4.018767 13.055753 -3.958073 0.767364 90.366266 -72.690974 -90.822472 3.013074 -4.172226 -0.087276 -11.458933 0.381391 -0.604656 -2.753958 -4.331794 -0.732200 -120.192490 -68.983783 121.904375 12.438447 -7.727959 -0.882970 -0.133517 -46.378664 11.097112 -118.274648 83.291563 -105.753610 -1.461220 -13.904535 -4.981311 -0.176209 1.017732 -0.085602 -8.644961 -50.557406 16.938373 -151.701325 80.419659 -159.259719 0.988412 -17.828074 8.004260 -0.453774 -0.684817 -0.184530
25.896532 50.065014 60.740108 172.899657 -33.869960 -7.108012 7.129347 20.033724 6.758383 0.840335 2.757555 0.619652 1.366430 4.513156 1.024496 5.887492 17.142218 4.668236 -2.635449 15.301849 1.778848 -5.581561 -7.274599 4.286287 -1.580172 -3.004368 -4.025632 13.068321 -3.970956 0.750003 90.413693 -72.624331 -90.861348 3.003962 -4.167763 -0.118289 -11.469246 0.363874 -0.609226 -2.767528 -4.357115 -0.675178 -120.307226 -68.943781 121.946932 12.444776 -7.827903 -0.789980 -0.150769 -46.378483 11.109321 -118.315529 83.311580 -105.786545 -1.473129 -13.890089 -5.010672 -0.150146 1.006750 -0.075342 -8.636974 -50.555653 16.941072 -151.691245 80.421627 -159.248437 0.990642 -17.827117 8.001964 -0.435262 -0.686523 -0.185774
25.895561 50.063191 60.744449 172.892934 -33.867924 -7.080108 7.119413 20.045120 6.727755 0.841679 2.759146 0.620428 1.364583 4.517093 1.021293 5.882550 17.151064 4.662541 -2.634952 15.270486 1.776709 -5.587727 -7.343389 4.275708 -1.563699 -3.039429 -4.027341 13.072577 -3.971056 0.747464 90.492491 -72.554098 -90.929053 3.017684 -4.152974 -0.173387 -11.492032 0.320669 -0.612763 -2.765439 -4.361074 -0.619226 -120.405808 -68.896506 121.995024 12.449940 -7.914399 -0.678540 -0.171418 -46.387566 11.101287 -118.413827 83.318174 -105.908263 -1.464487 -13.871883 -5.015531 -0.124346 0.989460 -0.080244 -8.595513 -50.563177 16.900808 -151.695400 80.428265 -159.250199 0.969808 -17.817594 8.004036 -0.431483 -0.689276 -0.182881
